<svg xmlns="http://www.w3.org/2000/svg" width="15.478" height="15.478" viewBox="0 0 15.478 15.478"><defs><style>.a{fill:#333;opacity:0.6;}</style></defs><path class="a" d="M15.075,4.369,13.681,5.762a.363.363,0,0,1-.514,0L9.812,2.407a.363.363,0,0,1,0-.514L11.205.5a1.454,1.454,0,0,1,2.053,0l1.817,1.817A1.449,1.449,0,0,1,15.075,4.369ZM8.615,3.09.676,11.028.035,14.7a.726.726,0,0,0,.84.84L4.549,14.9l7.939-7.939a.363.363,0,0,0,0-.514L9.132,3.09a.367.367,0,0,0-.517,0Zm-4.84,7.258a.421.421,0,0,1,0-.6L8.43,5.094a.423.423,0,0,1,.6.6L4.373,10.348a.421.421,0,0,1-.6,0ZM2.683,12.891H4.134v1.1l-1.95.342-.94-.94.342-1.95h1.1Z" transform="translate(-0.024 -0.075)"/></svg>