<svg xmlns="http://www.w3.org/2000/svg" width="512" height="512" viewBox="0 0 512 512"><defs><style>.a{fill:#707070;}</style></defs><path class="a" d="M76,240a44.773,44.773,0,0,0,31.148-12.652l44.4,22.2A44.072,44.072,0,0,0,151,255a45,45,0,0,0,90,0,44.453,44.453,0,0,0-4.512-19.277l60.234-60.234A44.453,44.453,0,0,0,316,180a45.052,45.052,0,0,0,45-45,44.325,44.325,0,0,0-2.246-13.328L411.09,82.43A44.97,44.97,0,1,0,391,45a44.325,44.325,0,0,0,2.246,13.328L340.91,97.57a44.805,44.805,0,0,0-65.4,56.707l-60.234,60.234a44.219,44.219,0,0,0-50.426,8.141l-44.4-22.2A44.072,44.072,0,0,0,121,195a45,45,0,1,0-45,45Zm0,0"/><path class="a" d="M497,482H481V165a14.994,14.994,0,0,0-15-15H406a14.994,14.994,0,0,0-15,15V482H361V255a14.994,14.994,0,0,0-15-15H286a14.994,14.994,0,0,0-15,15V482H241V375a14.994,14.994,0,0,0-15-15H166a14.994,14.994,0,0,0-15,15V482H121V315a14.994,14.994,0,0,0-15-15H46a14.994,14.994,0,0,0-15,15V482H15a15,15,0,0,0,0,30H497a15,15,0,0,0,0-30Zm0,0"/></svg>