<svg xmlns="http://www.w3.org/2000/svg" width="512" height="512" viewBox="0 0 512 512"><defs><style>.a{fill:#707070;}</style></defs><g transform="translate(-2 -2)"><path class="a" d="M258,2c-45.174,0-75.826,10.783-95.3,26.435s-27.13,35.783-27.13,52.522v54.609h111.3V146.7H80.957c-20.348,0-41,8.826-55.652,27.478S2,220.652,2,258s8.652,65.174,23.3,83.826S60.609,369.3,80.957,369.3h54.609v65.739c0,16.739,7.652,36.87,27.13,52.522S212.826,514,258,514s75.826-10.783,95.3-26.435,27.13-35.783,27.13-52.522V380.435H269.13V369.3H435.043c20.348,0,41-8.826,55.652-27.478S514,295.348,514,258s-8.652-65.174-23.3-83.826-35.3-27.478-55.652-27.478H380.435V80.957c0-17.174-7.609-37.348-27.13-52.87S303.13,2,258,2Zm0,22.261c41.7,0,66.957,9.739,81.391,21.217S358.174,70.3,358.174,80.957V213.478a33.4,33.4,0,0,1-33.391,33.391H191.217a55.753,55.753,0,0,0-51.13,34.087,53.469,53.469,0,0,0-3.478,10.435,55.227,55.227,0,0,0-1.043,11.13v44.522H80.957c-14.13,0-27.217-5.522-37.913-19.13S24.261,291.87,24.261,258s8.087-56.3,18.783-69.913,23.783-19.13,37.913-19.13H269.13V113.3h-111.3V80.957c0-9.957,4.3-23.522,18.783-35.13S216.348,24.261,258,24.261ZM202.348,57.652a22.261,22.261,0,1,0,22.261,22.261A22.3,22.3,0,0,0,202.348,57.652Zm178.087,111.3h54.609c14.13,0,27.217,5.522,37.913,19.13S491.739,224.13,491.739,258s-8.087,56.3-18.783,69.913-23.783,19.13-37.913,19.13H246.87V402.7h111.3v32.348c0,9.957-4.3,23.522-18.783,35.13S299.652,491.739,258,491.739s-66.913-9.956-81.391-21.565S157.826,445,157.826,435.043V302.522a33.082,33.082,0,0,1,.7-6.609,33.508,33.508,0,0,1,32.7-26.783H324.783a55.872,55.872,0,0,0,55.652-55.652Zm-66.783,244.87a22.261,22.261,0,1,0,22.261,22.261A22.3,22.3,0,0,0,313.652,413.826Zm0,0" transform="translate(0 0)"/></g></svg>