<svg xmlns="http://www.w3.org/2000/svg" width="13.664" height="15.617" viewBox="0 0 13.664 15.617"><defs><style>.a{fill:#333;opacity:0.6;}</style></defs><path class="a" d="M0,2.562V1.708A.73.73,0,0,1,.732.976H4.148l.287-.57A.724.724,0,0,1,5.088,0H8.574A.732.732,0,0,1,9.23.406l.287.57h3.416a.73.73,0,0,1,.732.732v.854a.367.367,0,0,1-.366.366H.366A.367.367,0,0,1,0,2.562ZM12.688,4.27v9.882a1.464,1.464,0,0,1-1.464,1.464H2.44A1.464,1.464,0,0,1,.976,14.152V4.27A.367.367,0,0,1,1.342,3.9h10.98A.367.367,0,0,1,12.688,4.27Zm-8.3,2.074a.488.488,0,1,0-.976,0v6.832a.488.488,0,0,0,.976,0Zm2.928,0a.488.488,0,1,0-.976,0v6.832a.488.488,0,0,0,.976,0Zm2.928,0a.488.488,0,1,0-.976,0v6.832a.488.488,0,0,0,.976,0Z" transform="translate(0 0)"/></svg>